<svg width="1200" height="1200" viewBox="0 0 1200 1200" fill="none" xmlns="http://www.w3.org/2000/svg">
  <rect width="1200" height="1200" rx="72" fill="#1B130D"/>
  <rect x="42" y="42" width="1116" height="1116" rx="48" fill="url(#paint0_linear)"/>
  <circle cx="858" cy="312" r="156" fill="#FFD4A2" fill-opacity="0.18"/>
  <circle cx="312" cy="842" r="232" fill="#F0944D" fill-opacity="0.13"/>
  <path d="M205 858C369.553 669.498 551.237 536.537 787 416C747.728 522.746 710.5 681 861 850.5C712.051 808.929 505.604 801.529 205 858Z" fill="#F6C487" fill-opacity="0.16"/>
  <path d="M224 939C356.667 828.833 486.104 754.507 756 650C685.071 726.199 654.25 787.385 650.5 919.5C547.494 871.326 422.695 860.465 224 939Z" fill="#FFF2E4" fill-opacity="0.12"/>
  <text x="96" y="210" fill="#FFF7EF" font-family="Noto Sans KR, Arial, sans-serif" font-size="42" font-weight="700" letter-spacing="0.28em">yojosuknam</text>
  <text x="96" y="390" fill="#FFF7EF" font-family="Georgia, serif" font-size="112" font-weight="700">MUSIC</text>
  <text x="96" y="500" fill="#FFF7EF" font-family="Georgia, serif" font-size="112" font-weight="700">ARCHIVE</text>
  <text x="100" y="618" fill="#FFD4A2" font-family="Noto Sans KR, Arial, sans-serif" font-size="34" font-weight="600">488 songs / multi-genre / mobile-first showcase</text>
  <defs>
    <linearGradient id="paint0_linear" x1="74" y1="90" x2="1124" y2="1118" gradientUnits="userSpaceOnUse">
      <stop stop-color="#2B1C10"/>
      <stop offset="0.56" stop-color="#683311"/>
      <stop offset="1" stop-color="#150F0B"/>
    </linearGradient>
  </defs>
</svg>

